<svg fill="none" xmlns="http://www.w3.org/2000/svg" viewBox="0 0 138 38">
  <path d="M.21 23.59c0-.68.13-1.36.388-2.04.257-.679.562-1.347.914-2.003.351-.68.703-1.348 1.054-2.004.375-.656.657-1.3.844-1.934-.445.258-.832.41-1.16.457-.305.024-.68.036-1.125.036H.668a5.995 5.995 0 0 0-.457-.036c.14-.515.398-.972.773-1.37A5.416 5.416 0 0 1 2.25 13.64c.492-.305.996-.551 1.512-.739.539-.21 1.02-.375 1.441-.492a20.284 20.284 0 0 0 1.723-3.305c.445-1.125.89-2.214 1.336-3.27a22.31 22.31 0 0 1 1.617-3.058C10.512 1.793 11.355.891 12.41.07l.176 1.336L8.19 11.707c.258-.07.575-.14.95-.21l1.125-.212c.398-.07.773-.129 1.125-.176.375-.07.691-.14.949-.21h.21c.118-.024.212-.036.282-.036.328 0 .598.059.809.176.21.117.386.375.527.774-1.594.468-3.035.96-4.324 1.476-1.29.516-2.414 1.195-3.375 2.04-.938.82-1.711 1.874-2.32 3.163-.587 1.266-.997 2.895-1.231 4.887 0 .422.023.808.07 1.16.047.352.34.563.88.633.538 0 1.042-.106 1.51-.317.47-.21.927-.433 1.372-.668.445-.257.89-.492 1.336-.703a3.64 3.64 0 0 1 1.512-.316c0 .563-.246 1.078-.739 1.547a7.326 7.326 0 0 1-1.793 1.23c-.68.352-1.382.621-2.109.809-.727.187-1.324.281-1.793.281a2.79 2.79 0 0 1-1.266-.281 2.961 2.961 0 0 1-.949-.738 4.213 4.213 0 0 1-.562-1.125A4.837 4.837 0 0 1 .21 23.59Zm9.704.457v-.563c.024-.304.035-.504.035-.597a20.887 20.887 0 0 1 2.883-4.746 22.973 22.973 0 0 1 3.973-3.868.962.962 0 0 0 .21-.035c.118-.047.2-.07.247-.07.633 0 1.148.14 1.547.422.421.258.75.61.984 1.055.258.421.434.902.527 1.44.094.517.14 1.02.14 1.513 0 .914-.21 1.875-.632 2.883a10.57 10.57 0 0 1-1.723 2.742 9.601 9.601 0 0 1-2.425 2.039c-.914.515-1.864.773-2.848.773-.984 0-1.723-.258-2.215-.773-.469-.54-.703-1.278-.703-2.215Zm2.742-.422c0 .258.106.434.317.527.21.094.421.141.632.141.586 0 1.149-.152 1.688-.457a6.116 6.116 0 0 0 1.477-1.195 6.004 6.004 0 0 0 1.054-1.618c.258-.585.387-1.148.387-1.687 0-.258-.023-.54-.07-.844a2.231 2.231 0 0 0-.211-.844 1.263 1.263 0 0 0-.563-.597c-.234-.14-.574-.164-1.02-.07-.328.07-.703.374-1.124.913a14.01 14.01 0 0 0-1.23 1.899 15.733 15.733 0 0 0-.95 2.145c-.258.703-.387 1.265-.387 1.687Zm9.106-.105c0-1.172.328-2.32.984-3.446a11.98 11.98 0 0 1 2.567-2.988 13.032 13.032 0 0 1 3.41-2.074c1.242-.54 2.425-.809 3.55-.809.446 0 .868.082 1.266.246.398.164.82.246 1.266.246h.21c.118-.258.34-.715.669-1.37.351-.657.714-1.348 1.09-2.075.398-.727.773-1.406 1.124-2.04.352-.655.61-1.112.774-1.37.258-.445.61-.996 1.055-1.652.445-.68.879-1.336 1.3-1.97.446-.632.832-1.171 1.16-1.616.329-.446.516-.668.563-.668l1.371 1.37c0 .048-.094.259-.281.634-.164.374-.387.867-.668 1.476-.281.586-.61 1.242-.984 1.969a94.585 94.585 0 0 1-1.09 2.18l-1.09 2.109a31.337 31.337 0 0 1-.88 1.652 888.496 888.496 0 0 0-2.214 3.375c-.727 1.125-1.312 2.18-1.758 3.164-.422.961-.633 1.805-.633 2.532.024.726.422 1.23 1.196 1.511 1.406-.258 2.46-.363 3.164-.316.703.047 1.136.176 1.3.387.188.187.165.421-.07.703-.234.258-.61.492-1.125.703-.492.21-1.066.351-1.722.422-.657.07-1.313 0-1.97-.211-.655-.211-1.253-.598-1.792-1.16-.54-.563-.95-1.372-1.23-2.426l-5.45 4.535-.281.07a6.819 6.819 0 0 1-.633.14c-.234.048-.48.095-.738.142-.258.046-.469.082-.633.105h-.21c-.54 0-.985-.094-1.337-.281a2.436 2.436 0 0 1-.773-.774 3.359 3.359 0 0 1-.387-1.125c-.047-.422-.07-.855-.07-1.3Zm2.285-.387c0 .14-.012.305-.035.492 0 .188.011.363.035.527.047.141.117.27.21.387.118.117.282.176.493.176.305 0 .668-.106 1.09-.317.445-.234.879-.503 1.3-.808.422-.305.81-.61 1.16-.914.376-.305.645-.528.81-.668.163-.164.468-.457.913-.88.446-.444.903-.913 1.372-1.405l1.37-1.371a21.9 21.9 0 0 0 .88-.915v-.175c.023-.024.035-.047.035-.07 0-.212-.07-.364-.211-.458a.758.758 0 0 0-.457-.21 1.31 1.31 0 0 0-.528-.036h-.457c-.843 0-1.734.176-2.672.528a10.1 10.1 0 0 0-2.601 1.441 7.9 7.9 0 0 0-1.934 2.11 4.639 4.639 0 0 0-.773 2.566Zm16.207.914v-.563c.023-.304.035-.504.035-.597.75-1.711 1.711-3.293 2.883-4.746a22.976 22.976 0 0 1 3.973-3.868.964.964 0 0 0 .21-.035c.118-.047.2-.07.247-.07.632 0 1.148.14 1.546.422.422.258.75.61.985 1.055.258.421.433.902.527 1.44.094.517.14 1.02.14 1.513 0 .914-.21 1.875-.632 2.883a10.567 10.567 0 0 1-1.723 2.742 9.6 9.6 0 0 1-2.425 2.039c-.915.515-1.864.773-2.848.773-.984 0-1.723-.258-2.215-.773-.469-.54-.703-1.278-.703-2.215Zm2.742-.422c0 .258.106.434.316.527.211.094.422.141.633.141.586 0 1.149-.152 1.688-.457a6.118 6.118 0 0 0 1.476-1.195 6.006 6.006 0 0 0 1.055-1.618c.258-.585.387-1.148.387-1.687 0-.258-.024-.54-.07-.844a2.233 2.233 0 0 0-.212-.844 1.263 1.263 0 0 0-.562-.597c-.234-.14-.574-.164-1.02-.07-.328.07-.703.374-1.124.913a14.02 14.02 0 0 0-1.231 1.899 15.733 15.733 0 0 0-.95 2.145c-.257.703-.386 1.265-.386 1.687Zm27.316 1.09c.211-1.336.61-2.567 1.196-3.692s1.254-2.097 2.004-2.918a11.407 11.407 0 0 1 2.496-2.074c.89-.539 1.758-.879 2.601-1.02.844-.163 1.618-.128 2.32.106.727.235 1.313.703 1.758 1.406a3.29 3.29 0 0 1-.386 1.547 15.33 15.33 0 0 1-.809 1.477c-.281.492-.55.996-.808 1.512a3.946 3.946 0 0 0-.352 1.652c0 .61.129 1.102.387 1.477.281.351.762.527 1.441.527.563 0 1.102-.082 1.617-.246a5.528 5.528 0 0 1 1.617-.246c.094 0 .247.011.458.035h.457a3.792 3.792 0 0 1-1.09 1.02c-.446.28-.914.527-1.406.738a8.352 8.352 0 0 1-1.547.422c-.516.093-.997.14-1.442.14-.422 0-.797-.094-1.125-.281a2.822 2.822 0 0 1-.843-.738 3.914 3.914 0 0 1-.563-1.02 4.103 4.103 0 0 1-.176-1.16c-.351.398-.738.82-1.16 1.265-.398.422-.832.81-1.3 1.16a6.65 6.65 0 0 1-1.477.88 3.865 3.865 0 0 1-1.618.351c-.609 0-1.136-.223-1.581-.668a2.321 2.321 0 0 1-.668-1.652Zm2.32-1.09v.633c.024.234.177.387.458.457.586-.14 1.254-.445 2.004-.914a14.476 14.476 0 0 0 2.11-1.688 11.263 11.263 0 0 0 1.652-2.074c.445-.75.667-1.465.667-2.145a.963.963 0 0 0-.035-.21v-.247c-.797 0-1.605.165-2.425.493a7.457 7.457 0 0 0-2.215 1.37 7.263 7.263 0 0 0-1.617 1.97 4.953 4.953 0 0 0-.598 2.355Zm8.298 13.219c0-.024.011-.07.035-.14v-.142l.105-.316c.047-.117.094-.246.14-.387l.142-.422a101.2 101.2 0 0 1 .809-1.828c.327-.703.702-1.511 1.124-2.425.422-.891.867-1.829 1.336-2.813.445-.984.879-1.922 1.3-2.812.423-.915.798-1.723 1.126-2.426.351-.727.61-1.266.773-1.617.305-.493.727-1.067 1.266-1.723a35.696 35.696 0 0 1 1.863-2.004c.68-.68 1.407-1.336 2.18-1.969.797-.656 1.57-1.23 2.32-1.722a13.492 13.492 0 0 1 2.25-1.23c.727-.329 1.371-.493 1.934-.493.844 0 1.441.152 1.793.457.351.305.527.926.527 1.863a8.16 8.16 0 0 1-.598 3.024c-.375.984-.89 1.922-1.546 2.812-.657.89-1.43 1.7-2.32 2.426a13.055 13.055 0 0 1-2.778 1.793c-.961.469-1.957.797-2.988.984a7.513 7.513 0 0 1-2.989-.105l-.457.457-4.57 11.39c-.07.212-.27.34-.598.387-.328.07-.597.106-.808.106-.305 0-.61-.106-.914-.317a.896.896 0 0 1-.457-.808Zm16.453-17.121c1.101-1.172 1.816-2.098 2.144-2.778.329-.703.399-1.195.211-1.476-.187-.281-.562-.387-1.125-.317-.562.07-1.195.27-1.898.598-.703.328-1.418.762-2.145 1.3a8.912 8.912 0 0 0-1.757 1.759c-.211.234-.47.55-.774.949a50 50 0 0 0-.914 1.16c-.281.375-.527.715-.738 1.02-.211.304-.317.48-.317.527v.738c1.618 0 3-.234 4.149-.703 1.148-.492 2.203-1.418 3.164-2.777Zm1.547 17.12c0-.023.011-.07.035-.14v-.14l.105-.317c.047-.117.094-.246.14-.387l.142-.422a102.662 102.662 0 0 1 .808-1.828c.328-.703.703-1.511 1.125-2.425.422-.891.867-1.829 1.336-2.813.445-.984.879-1.922 1.301-2.812.422-.915.797-1.723 1.125-2.426.351-.727.609-1.266.773-1.617.305-.493.727-1.067 1.266-1.723a35.762 35.762 0 0 1 1.863-2.004c.68-.68 1.406-1.336 2.18-1.969.797-.656 1.57-1.23 2.32-1.722a13.531 13.531 0 0 1 2.25-1.23c.727-.329 1.371-.493 1.934-.493.844 0 1.441.152 1.793.457.351.305.527.926.527 1.863a8.16 8.16 0 0 1-.598 3.024c-.375.984-.89 1.922-1.546 2.812-.657.89-1.43 1.7-2.321 2.426a13.057 13.057 0 0 1-2.777 1.793c-.961.469-1.957.797-2.988.984a7.516 7.516 0 0 1-2.989-.105l-.457.457-4.57 11.39c-.07.212-.269.34-.598.387-.328.07-.597.106-.808.106-.305 0-.61-.106-.914-.317a.896.896 0 0 1-.457-.808Zm16.453-17.12c1.101-1.172 1.816-2.098 2.144-2.778.328-.703.399-1.195.211-1.476-.187-.281-.562-.387-1.125-.317-.562.07-1.195.27-1.898.598-.703.328-1.418.762-2.145 1.3a8.924 8.924 0 0 0-1.758 1.759c-.21.234-.468.55-.773.949a50 50 0 0 0-.914 1.16c-.281.375-.527.715-.738 1.02-.211.304-.317.48-.317.527v.738c1.618 0 3-.234 4.149-.703 1.148-.492 2.203-1.418 3.164-2.777Z" fill="currentColor"/>
  <path stroke="currentColor" d="M10 29.5h128"/>
</svg>